<svg xmlns="http://www.w3.org/2000/svg" style="display: none;">
 <symbol id="icon-logo" width="24" height="24" viewBox="0 0 24 24" fill="none" xmlns="http://www.w3.org/2000/svg"> 

<g clip-path="url(#clip0_4313_547)">
<path d="M0 0L12.2571 12.1286L24 24V0H0Z" fill="#F6F6F6"/>
<path d="M3.34277 3.17139L12.2999 12.0428L20.7428 20.6571H3.34277V3.17139Z" fill="#F6F6F6"/>
<path d="M20.7994 20.7138L11.8423 11.8423L3.39941 3.22803H20.7994V20.7138Z" fill="#4F2EE8"/>
<path d="M6.94238 6.77142L11.6995 11.5286L17.1424 16.9714H6.94238V6.77142Z" fill="#4F2EE8"/>
<path d="M6.94238 6.77142L11.6995 11.5286L17.1424 16.9714V6.77142H6.94238Z" fill="#F6F6F6"/>
</g>
<defs>
<clipPath id="clip0_4313_547">
<rect width="24" height="24" fill="white"/>
</clipPath>
</defs>
</symbol>

  <symbol id="icon-user" viewBox="0 0 24 24">
    <path d="..." />
  </symbol>


  <symbol id="icon-burger" width="28" height="28" viewBox="0 0 28 28" fill="none" xmlns="http://www.w3.org/2000/svg">
  
<path d="M19.8333 11.6667H3.5" stroke="currentColor" stroke-width="2" stroke-linecap="round" stroke-linejoin="round"/>
<path d="M24.5 7H3.5" stroke="currentColor" stroke-width="2" stroke-linecap="round" stroke-linejoin="round"/>
<path d="M24.5 16.3333H3.5" stroke="currentColor" stroke-width="2" stroke-linecap="round" stroke-linejoin="round"/>
<path d="M19.8333 21H3.5" stroke="currentColor" stroke-width="2" stroke-linecap="round" stroke-linejoin="round"/>
  
  </symbol>


<symbol id="icon-shop"  width="14" height="17" viewBox="0 0 14 17" fill="none" xmlns="http://www.w3.org/2000/svg">
<path d="M12.5 4.16667H10V3.33333C10 2.44928 9.64881 1.60143 9.02369 0.976311C8.39857 0.351189 7.55072 0 6.66666 0C5.78261 0 4.93476 0.351189 4.30964 0.976311C3.68452 1.60143 3.33333 2.44928 3.33333 3.33333V4.16667H0.833333C0.612319 4.16667 0.400358 4.25446 0.244078 4.41074C0.0877975 4.56702 0 4.77899 0 5V14.1667C0 14.8297 0.263392 15.4656 0.732233 15.9344C1.20107 16.4033 1.83696 16.6667 2.5 16.6667H10.8333C11.4964 16.6667 12.1323 16.4033 12.6011 15.9344C13.0699 15.4656 13.3333 14.8297 13.3333 14.1667V5C13.3333 4.77899 13.2455 4.56702 13.0893 4.41074C12.933 4.25446 12.721 4.16667 12.5 4.16667ZM5 3.33333C5 2.89131 5.17559 2.46738 5.48815 2.15482C5.80071 1.84226 6.22464 1.66667 6.66666 1.66667C7.10869 1.66667 7.53261 1.84226 7.84517 2.15482C8.15773 2.46738 8.33333 2.89131 8.33333 3.33333V4.16667H5V3.33333ZM11.6667 14.1667C11.6667 14.3877 11.5789 14.5996 11.4226 14.7559C11.2663 14.9122 11.0543 15 10.8333 15H2.5C2.27899 15 2.06702 14.9122 1.91074 14.7559C1.75446 14.5996 1.66667 14.3877 1.66667 14.1667V5.83333H3.33333V6.66667C3.33333 6.88768 3.42113 7.09964 3.57741 7.25592C3.73369 7.4122 3.94565 7.5 4.16667 7.5C4.38768 7.5 4.59964 7.4122 4.75592 7.25592C4.9122 7.09964 5 6.88768 5 6.66667V5.83333H8.33333V6.66667C8.33333 6.88768 8.42113 7.09964 8.57741 7.25592C8.73369 7.4122 8.94565 7.5 9.16666 7.5C9.38768 7.5 9.59964 7.4122 9.75592 7.25592C9.9122 7.09964 10 6.88768 10 6.66667V5.83333H11.6667V14.1667Z" fill="currentColor"/>
</symbol>

<symbol id="icon-arrow" width="14" height="8" viewBox="0 0 14 8" fill="none" xmlns="http://www.w3.org/2000/svg">

<path d="M0 0H13.4167L7.38588 6.81742C7.20616 7.02051 6.96245 7.1346 6.70833 7.1346C6.45422 7.1346 6.21051 7.02051 6.03079 6.81742L0 0Z" fill="currentColor"/></symbol>


<symbol id="icon-close" width="17" height="17" viewBox="0 0 17 17" fill="none" xmlns="http://www.w3.org/2000/svg"><path d="M15.5 1.5L1.5 15.5M1.5 1.5L15.5 15.5" stroke="currentColor" stroke-width="3" stroke-linecap="round" stroke-linejoin="round"/></symbol>

<symbol id="icon-email" width="17" height="14" viewBox="0 0 17 14" fill="none" xmlns="http://www.w3.org/2000/svg"> 
<path d="M15.375 11.25L10.3929 6.75M6.10714 6.75L1.12503 11.25M0.75 3L6.87369 7.28658C7.36957 7.6337 7.61751 7.80725 7.8872 7.87448C8.12542 7.93386 8.37458 7.93386 8.6128 7.87448C8.88249 7.80725 9.13043 7.6337 9.62631 7.28658L15.75 3M4.35 12.75H12.15C13.4101 12.75 14.0402 12.75 14.5215 12.5048C14.9448 12.289 15.2891 11.9448 15.5048 11.5215C15.75 11.0402 15.75 10.4101 15.75 9.15V4.35C15.75 3.08988 15.75 2.45982 15.5048 1.97852C15.2891 1.55516 14.9448 1.21095 14.5215 0.995235C14.0402 0.75 13.4101 0.75 12.15 0.75H4.35C3.08988 0.75 2.45982 0.75 1.97852 0.995235C1.55516 1.21095 1.21095 1.55516 0.995235 1.97852C0.75 2.45982 0.75 3.08988 0.75 4.35V9.15C0.75 10.4101 0.75 11.0402 0.995235 11.5215C1.21095 11.9448 1.55516 12.289 1.97852 12.5048C2.45982 12.75 3.08988 12.75 4.35 12.75Z" stroke="currentColor" stroke-width="1.5" stroke-linecap="round" stroke-linejoin="round"/>
</symbol>
<symbol id="icon-password" width="15" height="15" viewBox="0 0 15 15" fill="none" xmlns="http://www.w3.org/2000/svg">
<path d="M11.25 6.75V4.5C11.25 2.42893 9.57107 0.75 7.5 0.75C5.42893 0.75 3.75 2.42893 3.75 4.5V6.75M4.35 14.25H10.65C11.9101 14.25 12.5402 14.25 13.0215 14.0048C13.4448 13.789 13.789 13.4448 14.0048 13.0215C14.25 12.5402 14.25 11.9101 14.25 10.65V10.35C14.25 9.08988 14.25 8.45982 14.0048 7.97852C13.789 7.55516 13.4448 7.21095 13.0215 6.99524C12.5402 6.75 11.9101 6.75 10.65 6.75H4.35C3.08988 6.75 2.45982 6.75 1.97852 6.99524C1.55516 7.21095 1.21095 7.55516 0.995235 7.97852C0.75 8.45982 0.75 9.08988 0.75 10.35V10.65C0.75 11.9101 0.75 12.5402 0.995235 13.0215C1.21095 13.4448 1.55516 13.789 1.97852 14.0048C2.45982 14.25 3.08988 14.25 4.35 14.25Z" stroke="currentColor" stroke-width="1.5" stroke-linecap="round" stroke-linejoin="round"/>
</symbol>


<symbol id="icon-arrow-signup" width="16" height="12" viewBox="0 0 16 12" fill="none" xmlns="http://www.w3.org/2000/svg">
<path d="M1 6H14.3333M14.3333 6L9.33333 1M14.3333 6L9.33333 11" stroke="#EAC645" stroke-width="2" stroke-linecap="round" stroke-linejoin="round"/>
</symbol>
</svg>